<?xml version="1.0" encoding="UTF-8" standalone="no"?>
<!-- Created with Inkscape (http://www.inkscape.org/) -->

<svg
   width="457.78473mm"
   height="387.97888mm"
   viewBox="0 0 457.78473 387.97889"
   version="1.1"
   id="svg1"
   xml:space="preserve"
   inkscape:version="1.3.2 (091e20e, 2023-11-25, custom)"
   sodipodi:docname="containers.svg"
   inkscape:export-filename="containers.png"
   inkscape:export-xdpi="957.83"
   inkscape:export-ydpi="957.83"
   xmlns:inkscape="http://www.inkscape.org/namespaces/inkscape"
   xmlns:sodipodi="http://sodipodi.sourceforge.net/DTD/sodipodi-0.dtd"
   xmlns:xlink="http://www.w3.org/1999/xlink"
   xmlns="http://www.w3.org/2000/svg"
   xmlns:svg="http://www.w3.org/2000/svg"><sodipodi:namedview
     id="namedview1"
     pagecolor="#ffffff"
     bordercolor="#666666"
     borderopacity="1.0"
     inkscape:showpageshadow="2"
     inkscape:pageopacity="0.0"
     inkscape:pagecheckerboard="0"
     inkscape:deskcolor="#d1d1d1"
     inkscape:document-units="mm"
     inkscape:zoom="0.53050295"
     inkscape:cx="939.67432"
     inkscape:cy="423.18332"
     inkscape:window-width="2560"
     inkscape:window-height="1369"
     inkscape:window-x="1912"
     inkscape:window-y="-8"
     inkscape:window-maximized="1"
     inkscape:current-layer="layer1" /><defs
     id="defs1"><linearGradient
       id="linearGradient6"
       inkscape:collect="always"><stop
         style="stop-color:#8aadf4;stop-opacity:1;"
         offset="0"
         id="stop6" /><stop
         style="stop-color:#8aadf4;stop-opacity:0;"
         offset="1"
         id="stop7" /></linearGradient><linearGradient
       inkscape:collect="always"
       xlink:href="#linearGradient6"
       id="linearGradient7"
       x1="-127.14885"
       y1="-173.05565"
       x2="-63.384266"
       y2="-173.05565"
       gradientUnits="userSpaceOnUse"
       gradientTransform="matrix(0.69028081,0,0,0.69028081,-83.815958,236.79654)" /><linearGradient
       inkscape:collect="always"
       xlink:href="#linearGradient6"
       id="linearGradient8"
       gradientUnits="userSpaceOnUse"
       gradientTransform="matrix(0.69028081,0,0,0.69028081,152.40399,239.06459)"
       x1="-127.14885"
       y1="-173.05565"
       x2="-63.384266"
       y2="-173.05565" /></defs><g
     inkscape:label="Layer 1"
     inkscape:groupmode="layer"
     id="layer1"
     transform="translate(171.58437,65.292231)"><rect
       style="fill:#ffffff;fill-opacity:1;stroke:#39484c;stroke-width:2.1834;stroke-dasharray:8.73363, 2.1834;stroke-dashoffset:0;stroke-opacity:1;paint-order:markers fill stroke"
       id="rect1-8-4"
       width="234.35672"
       height="101.31283"
       x="-53.174721"
       y="216.578" /><g
       id="g6"
       transform="translate(-168.94018,314.72528)"><text
         xml:space="preserve"
         style="font-style:normal;font-weight:normal;font-size:15.1208px;line-height:1.25;font-family:sans-serif;fill:#000000;fill-opacity:1;stroke:none;stroke-width:0.378022"
         x="156.13554"
         y="-4.6935945"
         id="text1-8"><tspan
           sodipodi:role="line"
           id="tspan1-4"
           style="font-style:normal;font-variant:normal;font-weight:normal;font-stretch:normal;font-family:'IBM 3270';-inkscape-font-specification:'IBM 3270, ';stroke-width:0.378022"
           x="156.13554"
           y="-4.6935945">Laptop</tspan></text><text
         xml:space="preserve"
         style="font-style:normal;font-weight:normal;font-size:15.1208px;line-height:1.25;font-family:sans-serif;fill:#000000;fill-opacity:1;stroke:none;stroke-width:0.378022"
         x="244.27402"
         y="-4.1330457"
         id="text1-8-3"><tspan
           sodipodi:role="line"
           id="tspan1-4-8"
           style="font-style:normal;font-variant:normal;font-weight:normal;font-stretch:normal;font-family:'IBM 3270';-inkscape-font-specification:'IBM 3270, ';stroke-width:0.378022"
           x="244.27402"
           y="-4.1330457">Server</tspan></text><path
         fill="currentColor"
         d="M 290.56536,-75.703186 V -42.9371 h -46.80869 v -32.766086 z m -46.80869,-9.361743 c -5.1636,0 -9.36174,4.198157 -9.36174,9.361743 V -42.9371 c 0,5.163583 4.19814,9.361736 9.36174,9.361736 h 17.15831 l -1.56516,4.680872 h -10.91228 c -2.58912,0 -4.68087,2.091764 -4.68087,4.680872 0,2.589101 2.09175,4.680862 4.68087,4.680862 h 37.44697 c 2.58909,0 4.68085,-2.091761 4.68085,-4.680862 0,-2.589108 -2.09176,-4.680872 -4.68085,-4.680872 H 274.9576 l -1.56518,-4.680872 h 17.17294 c 5.1636,0 9.36174,-4.198153 9.36174,-9.361736 v -32.766086 c 0,-5.163586 -4.19814,-9.361743 -9.36174,-9.361743 z m 67.87261,0 c -3.87635,0 -7.02131,3.144962 -7.02131,7.021307 v 51.489563 c 0,3.876344 3.14496,7.021301 7.02131,7.021301 h 9.36174 c 3.87635,0 7.02131,-3.144957 7.02131,-7.021301 v -51.489563 c 0,-3.876345 -3.14496,-7.021307 -7.02131,-7.021307 z m 2.34043,9.361743 h 4.68087 c 1.28725,0 2.34044,1.053194 2.34044,2.340433 0,1.28724 -1.05319,2.340435 -2.34044,2.340435 h -4.68087 c -1.28723,0 -2.34043,-1.053195 -2.34043,-2.340435 0,-1.287239 1.0532,-2.340433 2.34043,-2.340433 m -2.34043,11.702172 c 0,-1.287238 1.0532,-2.340433 2.34043,-2.340433 h 4.68087 c 1.28725,0 2.34044,1.053195 2.34044,2.340433 0,1.287238 -1.05319,2.340433 -2.34044,2.340433 h -4.68087 c -1.28723,0 -2.34043,-1.053195 -2.34043,-2.340433 m 4.68087,23.404347 a 4.6808714,4.6808714 0 1 1 0,9.361742 4.6808714,4.6808714 0 1 1 0,-9.361742"
         id="path1"
         style="fill:#39484c;fill-opacity:1;stroke-width:0.146277" /><path
         fill="currentColor"
         d="m 219.96664,-23.883199 -5.09216,-17.936248 v -39.054046 c 0,-1.489771 -1.20361,-2.693375 -2.69339,-2.693375 h -59.25441 c -1.48977,0 -2.69338,1.203604 -2.69338,2.693375 v 39.054046 l -5.09218,17.936248 c -0.63126,1.759105 0.66494,3.610813 2.53348,3.610813 h 69.75858 c 1.86854,0 3.16474,-1.851708 2.53346,-3.610813 m -63.67323,-53.623553 h 52.52095 v 33.246432 h -52.52095 z m 19.21559,51.17425 0.68177,-3.114224 h 12.65048 l 0.68176,3.114224 z m 18.85369,0 -1.60762,-7.297384 c -0.0674,-0.311414 -0.34509,-0.530254 -0.65651,-0.530254 h -19.15668 c -0.31985,0 -0.58918,0.21884 -0.65651,0.530254 l -1.60762,7.297384 h -18.54224 l 3.5603,-12.541052 h 53.71614 l 3.56032,12.541052 z"
         id="path1-8"
         style="fill:#39484c;fill-opacity:1;stroke-width:0.084168" /></g><path
       fill="none"
       stroke="#8aadf4"
       stroke-linecap="round"
       stroke-linejoin="round"
       d="m 39.540721,177.48215 h 50.18567 l 3.58454,-2.38976 a 25.570748,25.570748 0 0 1 0,-16.72849 c 4.77971,2.86774 4.77971,8.98566 8.316559,9.55921 3.68029,-0.42993 5.87893,0.0542 9.55922,2.48533 0,0 -4.63626,8.4598 -11.948979,9.46347 -9.22466,17.44548 -21.50819,26.28771 -33.36142,26.28771 -28.72534,0 -26.33559,-28.67747 -26.33559,-28.67747 m 4.77952,0 v -9.55904 m 0,0 h 38.23669 m -28.67748,9.55904 V 158.3639 m 0,0 h 19.11844 m -9.55922,-9.55922 h 9.55922 m -9.55922,28.67747 v -28.67747 m 9.55922,28.67747 v -28.67747 m 9.55904,28.67747 v -9.55904"
       stroke-width="4.77957"
       id="path1-81" /><rect
       style="fill:#ffffff;fill-opacity:1;stroke:#39484c;stroke-width:2.71063;stroke-dasharray:10.8425, 2.71063;stroke-dashoffset:0;stroke-opacity:1;paint-order:markers fill stroke"
       id="rect1-8"
       width="198.29688"
       height="184.54301"
       x="-149.67178"
       y="-63.936916" /><text
       xml:space="preserve"
       style="font-style:normal;font-weight:normal;font-size:15.1208px;line-height:1.25;font-family:sans-serif;fill:#000000;fill-opacity:1;stroke:none;stroke-width:0.378022"
       x="-136.13832"
       y="-44.985928"
       id="text1-9"><tspan
         sodipodi:role="line"
         id="tspan1-6"
         style="font-style:normal;font-variant:normal;font-weight:normal;font-stretch:normal;font-family:'IBM 3270';-inkscape-font-specification:'IBM 3270, ';stroke-width:0.378022"
         x="-136.13832"
         y="-44.985928">Container</tspan></text><rect
       style="fill:#8383ff;fill-opacity:1;stroke:#4646f9;stroke-width:2.93922;stroke-dasharray:none;stroke-dashoffset:0;stroke-opacity:1;paint-order:markers fill stroke"
       id="rect2-1"
       width="98.685036"
       height="65.182068"
       x="-72.873077"
       y="-39.885296" /><text
       xml:space="preserve"
       style="font-style:normal;font-weight:normal;font-size:15.1208px;line-height:1.25;font-family:sans-serif;fill:#ffffff;fill-opacity:1;stroke:none;stroke-width:0.378022"
       x="-67.115463"
       y="-21.352451"
       id="text1-9-7-9"><tspan
         sodipodi:role="line"
         id="tspan1-6-9-5"
         style="font-style:normal;font-variant:normal;font-weight:normal;font-stretch:normal;font-family:'IBM 3270';-inkscape-font-specification:'IBM 3270, ';fill:#ffffff;fill-opacity:1;stroke-width:0.378022"
         x="-67.115463"
         y="-21.352451">Application</tspan></text><rect
       style="fill:#8383ff;fill-opacity:1;stroke:#4646f9;stroke-width:2.93922;stroke-dasharray:none;stroke-dashoffset:0;stroke-opacity:1;paint-order:markers fill stroke"
       id="rect2-1-9"
       width="98.685036"
       height="65.182068"
       x="-84.418037"
       y="-28.518902" /><text
       xml:space="preserve"
       style="font-style:normal;font-weight:normal;font-size:15.1208px;line-height:1.25;font-family:sans-serif;fill:#ffffff;fill-opacity:1;stroke:none;stroke-width:0.378022"
       x="-78.660423"
       y="-9.9860582"
       id="text1-9-7-9-6"><tspan
         sodipodi:role="line"
         id="tspan1-6-9-5-4"
         style="font-style:normal;font-variant:normal;font-weight:normal;font-stretch:normal;font-family:'IBM 3270';-inkscape-font-specification:'IBM 3270, ';fill:#ffffff;fill-opacity:1;stroke-width:0.378022"
         x="-78.660423"
         y="-9.9860582">Application</tspan></text><rect
       style="fill:#53d390;fill-opacity:1;stroke:#010101;stroke-width:2.40404;stroke-dasharray:none;stroke-dashoffset:0;stroke-opacity:1;paint-order:markers fill stroke"
       id="rect2-1-9-9"
       width="157.76224"
       height="27.276995"
       x="-132.56659"
       y="50.129494" /><text
       xml:space="preserve"
       style="font-style:normal;font-weight:normal;font-size:15.1208px;line-height:1.25;font-family:sans-serif;fill:#000000;fill-opacity:1;stroke:none;stroke-width:0.378022"
       x="-109.26091"
       y="68.929924"
       id="text1-9-7-9-6-2"><tspan
         sodipodi:role="line"
         id="tspan1-6-9-5-4-7"
         style="font-style:normal;font-variant:normal;font-weight:normal;font-stretch:normal;font-family:'IBM 3270';-inkscape-font-specification:'IBM 3270, ';stroke-width:0.378022"
         x="-109.26091"
         y="68.929924">Software Code</tspan></text><rect
       style="fill:#ffcc00;fill-opacity:1;stroke:#010101;stroke-width:2.40404;stroke-dasharray:none;stroke-dashoffset:0;stroke-opacity:1;paint-order:markers fill stroke"
       id="rect2-1-9-9-0"
       width="157.76196"
       height="27.276997"
       x="-132.56667"
       y="82.155449" /><text
       xml:space="preserve"
       style="font-style:normal;font-weight:normal;font-size:15.1208px;line-height:1.25;font-family:sans-serif;fill:#000000;fill-opacity:1;stroke:none;stroke-width:0.378022"
       x="-101.50957"
       y="100.25055"
       id="text1-9-7-9-6-2-9"><tspan
         sodipodi:role="line"
         id="tspan1-6-9-5-4-7-8"
         style="font-style:normal;font-variant:normal;font-weight:normal;font-stretch:normal;font-family:'IBM 3270';-inkscape-font-specification:'IBM 3270, ';stroke-width:0.378022"
         x="-101.50957"
         y="100.25055">Dependencies</tspan></text><path
       fill="currentColor"
       d="m -129.77881,106.86534 -19.39602,-5.54121 a 1.4610944,1.4610944 0 0 0 -0.60818,-0.042 l -19.20062,2.74321 a 2.9367997,2.9367997 0 0 0 -2.50942,2.89296 v 20.84251 a 2.9367997,2.9367997 0 0 0 2.50942,2.89297 l 19.20062,2.73955 a 1.5524127,1.5524127 0 0 0 0.20638,0.0182 1.4610944,1.4610944 0 0 0 0.4018,-0.0566 l 19.39602,-5.5412 a 2.9349733,2.9349733 0 0 0 2.11859,-2.80348 v -15.34146 a 2.9349733,2.9349733 0 0 0 -2.11859,-2.80348 m -31.48659,9.01313 h -2.92219 a 1.461095,1.461095 0 0 0 0,2.92219 h 2.92219 v 10.00484 l -7.30547,-1.04468 v -20.84251 l 7.30547,-1.04469 z m 10.22767,14.38812 -7.30548,-1.04468 v -10.42125 h 2.92219 a 1.461095,1.461095 0 0 0 0,-2.92219 h -2.92219 v -10.42126 l 7.30548,-1.04468 z"
       id="path1-5"
       style="fill:#8aadf4;fill-opacity:1;stroke:url(#linearGradient7);stroke-width:0.182637;stroke-opacity:1" /><rect
       style="fill:#ffffff;fill-opacity:1;stroke:#39484c;stroke-width:2.71063;stroke-dasharray:10.8425, 2.71063;stroke-dashoffset:0;stroke-opacity:1;paint-order:markers fill stroke"
       id="rect1-8-1"
       width="198.29688"
       height="184.54301"
       x="86.548164"
       y="-61.668869" /><text
       xml:space="preserve"
       style="font-style:normal;font-weight:normal;font-size:15.1208px;line-height:1.25;font-family:sans-serif;fill:#000000;fill-opacity:1;stroke:none;stroke-width:0.378022"
       x="100.08163"
       y="-42.71788"
       id="text1-9-3"><tspan
         sodipodi:role="line"
         id="tspan1-6-3"
         style="font-style:normal;font-variant:normal;font-weight:normal;font-stretch:normal;font-family:'IBM 3270';-inkscape-font-specification:'IBM 3270, ';stroke-width:0.378022"
         x="100.08163"
         y="-42.71788">Container</tspan></text><rect
       style="fill:#8383ff;fill-opacity:1;stroke:#4646f9;stroke-width:2.93922;stroke-dasharray:none;stroke-dashoffset:0;stroke-opacity:1;paint-order:markers fill stroke"
       id="rect2-1-7"
       width="98.685036"
       height="65.182068"
       x="163.34688"
       y="-37.617249" /><text
       xml:space="preserve"
       style="font-style:normal;font-weight:normal;font-size:15.1208px;line-height:1.25;font-family:sans-serif;fill:#ffffff;fill-opacity:1;stroke:none;stroke-width:0.378022"
       x="169.10449"
       y="-19.084406"
       id="text1-9-7-9-8"><tspan
         sodipodi:role="line"
         id="tspan1-6-9-5-7"
         style="font-style:normal;font-variant:normal;font-weight:normal;font-stretch:normal;font-family:'IBM 3270';-inkscape-font-specification:'IBM 3270, ';fill:#ffffff;fill-opacity:1;stroke-width:0.378022"
         x="169.10449"
         y="-19.084406">Application</tspan></text><rect
       style="fill:#8383ff;fill-opacity:1;stroke:#4646f9;stroke-width:2.93922;stroke-dasharray:none;stroke-dashoffset:0;stroke-opacity:1;paint-order:markers fill stroke"
       id="rect2-1-9-2"
       width="98.685036"
       height="65.182068"
       x="151.80191"
       y="-26.250856" /><text
       xml:space="preserve"
       style="font-style:normal;font-weight:normal;font-size:15.1208px;line-height:1.25;font-family:sans-serif;fill:#ffffff;fill-opacity:1;stroke:none;stroke-width:0.378022"
       x="157.55952"
       y="-7.7180119"
       id="text1-9-7-9-6-6"><tspan
         sodipodi:role="line"
         id="tspan1-6-9-5-4-6"
         style="font-style:normal;font-variant:normal;font-weight:normal;font-stretch:normal;font-family:'IBM 3270';-inkscape-font-specification:'IBM 3270, ';fill:#ffffff;fill-opacity:1;stroke-width:0.378022"
         x="157.55952"
         y="-7.7180119">Application</tspan></text><rect
       style="fill:#53d390;fill-opacity:1;stroke:#010101;stroke-width:2.40404;stroke-dasharray:none;stroke-dashoffset:0;stroke-opacity:1;paint-order:markers fill stroke"
       id="rect2-1-9-9-5"
       width="157.76224"
       height="27.276995"
       x="103.65336"
       y="52.397541" /><text
       xml:space="preserve"
       style="font-style:normal;font-weight:normal;font-size:15.1208px;line-height:1.25;font-family:sans-serif;fill:#000000;fill-opacity:1;stroke:none;stroke-width:0.378022"
       x="126.95904"
       y="71.197968"
       id="text1-9-7-9-6-2-7"><tspan
         sodipodi:role="line"
         id="tspan1-6-9-5-4-7-4"
         style="font-style:normal;font-variant:normal;font-weight:normal;font-stretch:normal;font-family:'IBM 3270';-inkscape-font-specification:'IBM 3270, ';stroke-width:0.378022"
         x="126.95904"
         y="71.197968">Software Code</tspan></text><rect
       style="fill:#ffcc00;fill-opacity:1;stroke:#010101;stroke-width:2.40404;stroke-dasharray:none;stroke-dashoffset:0;stroke-opacity:1;paint-order:markers fill stroke"
       id="rect2-1-9-9-0-9"
       width="157.76196"
       height="27.276997"
       x="103.65328"
       y="84.423492" /><text
       xml:space="preserve"
       style="font-style:normal;font-weight:normal;font-size:15.1208px;line-height:1.25;font-family:sans-serif;fill:#000000;fill-opacity:1;stroke:none;stroke-width:0.378022"
       x="134.71039"
       y="102.51859"
       id="text1-9-7-9-6-2-9-7"><tspan
         sodipodi:role="line"
         id="tspan1-6-9-5-4-7-8-3"
         style="font-style:normal;font-variant:normal;font-weight:normal;font-stretch:normal;font-family:'IBM 3270';-inkscape-font-specification:'IBM 3270, ';stroke-width:0.378022"
         x="134.71039"
         y="102.51859">Dependencies</tspan></text><path
       fill="currentColor"
       d="m 106.44114,109.13339 -19.39602,-5.54121 a 1.4610944,1.4610944 0 0 0 -0.60818,-0.042 l -19.20062,2.74321 a 2.9367997,2.9367997 0 0 0 -2.50942,2.89296 v 20.84251 a 2.9367997,2.9367997 0 0 0 2.50942,2.89297 l 19.20062,2.73955 a 1.5524127,1.5524127 0 0 0 0.20638,0.0182 1.4610944,1.4610944 0 0 0 0.4018,-0.0566 l 19.39602,-5.5412 a 2.9349733,2.9349733 0 0 0 2.11859,-2.80348 v -15.34146 a 2.9349733,2.9349733 0 0 0 -2.11859,-2.80348 m -31.48659,9.01313 h -2.92219 a 1.461095,1.461095 0 0 0 0,2.92219 h 2.92219 v 10.00484 l -7.30547,-1.04468 v -20.84251 l 7.30547,-1.04469 z m 10.22767,14.38812 -7.30548,-1.04468 v -10.42125 h 2.92219 a 1.461095,1.461095 0 0 0 0,-2.92219 h -2.92219 v -10.42126 l 7.30548,-1.04468 z"
       id="path1-5-4"
       style="fill:#8aadf4;fill-opacity:1;stroke:url(#linearGradient8);stroke-width:0.182637;stroke-opacity:1" /></g></svg>
